ply
format ascii 1.0
comment Written with hapPLY (https://github.com/nmwsharp/happly)
element face 50
property list uchar uint vertex_indices
element vertex 50
property double x
property double y
property double z
end_header
4 0 1 3 2
4 2 3 7 6
4 6 7 5 4
4 4 5 1 0
4 2 6 4 0
4 7 3 1 5
5 11 8 9 10 12
5 15 13 14 10 9
5 19 16 17 18 20
5 23 21 22 18 17
5 25 24 20 18 22
5 24 25 12 10 14
5 27 26 15 9 8
5 26 27 23 17 16
5 26 16 19 13 15
5 13 19 20 24 14
5 21 11 12 25 22
5 11 21 23 27 8
3 32 33 34
3 32 34 35
3 32 35 36
3 32 36 33
3 33 37 34
3 34 37 35
3 35 37 36
3 36 37 33
3 38 39 40
3 39 38 43
3 38 40 41
3 38 41 42
3 38 42 43
3 39 43 48
3 40 39 44
3 41 40 45
3 42 41 46
3 43 42 47
3 39 48 44
3 40 44 45
3 41 45 46
3 42 46 47
3 43 47 48
3 44 48 49
3 45 44 49
3 46 45 49
3 47 46 49
3 48 47 49
3 28 29 30
3 28 30 31
3 28 31 29
3 29 31 30
-3.5626259999999998 -0.62797199999999997 0.613591
-3.5626259999999998 0.60088399999999997 0.613591
-3.5626259999999998 -0.62797199999999997 -0.61526499999999995
-3.5626259999999998 0.60088399999999997 -0.61526499999999995
-2.3337690000000002 -0.62797199999999997 0.613591
-2.3337690000000002 0.60088399999999997 0.613591
-2.3337690000000002 -0.62797199999999997 -0.61526499999999995
-2.3337690000000002 0.60088399999999997 -0.61526499999999995
3.8602310000000002 -0.57735000000000003 0.57735000000000003
4.2170529999999999 -0.35682199999999997 -0
4.2170529999999999 0.35682199999999997 0
3.6397029999999999 -0 0.934172
3.8602310000000002 0.57735000000000003 0.57735000000000003
3.6397029999999999 0 -0.934172
3.8602310000000002 0.57735000000000003 -0.57735000000000003
3.8602310000000002 -0.57735000000000003 -0.57735000000000003
2.7055310000000001 -0.57735000000000003 -0.57735000000000003
2.3487089999999999 -0.35682199999999997 -0
2.3487089999999999 0.35682199999999997 0
2.926059 0 -0.934172
2.7055310000000001 0.57735000000000003 -0.57735000000000003
2.926059 -0 0.934172
2.7055310000000001 0.57735000000000003 0.57735000000000003
2.7055310000000001 -0.57735000000000003 0.57735000000000003
3.2828810000000002 0.934172 -0.35682199999999997
3.2828810000000002 0.934172 0.35682199999999997
3.2828810000000002 -0.934172 -0.35682199999999997
3.2828810000000002 -0.934172 0.35682199999999997
-6.0529019999999996 0.72315099999999999 -0.048379999999999999
-5.110093 -0.610182 -0.048379999999999999
-6.5243070000000003 -0.610182 -0.86487700000000001
-6.5243070000000003 -0.610182 0.76811600000000002
-0 1.1580870000000001 0
-0 0 -1.1580870000000001
-1.1580870000000001 0 0
-0 0 1.1580859999999999
1.1580859999999999 0 0
-0 -1.1580870000000001 0
6.0688069999999996 -1.0142409999999999 0.056527000000000001
6.7924069999999999 -0.46145599999999998 0.58224699999999996
5.7924220000000002 -0.46145599999999998 0.90716699999999995
5.1743819999999996 -0.46145599999999998 0.056527000000000001
5.7924220000000002 -0.46145599999999998 -0.79411299999999996
6.7924069999999999 -0.46145599999999998 -0.46919300000000003
6.3451919999999999 0.43297400000000003 0.90716699999999995
5.3452070000000003 0.43297400000000003 0.58224699999999996
5.3452070000000003 0.43297400000000003 -0.46919300000000003
6.3451919999999999 0.43297400000000003 -0.79411299999999996
6.9632319999999996 0.43297400000000003 0.056527000000000001
6.0688069999999996 0.98575900000000005 0.056527000000000001
